<svg xmlns="http://www.w3.org/2000/svg" viewBox="0 0 512 512">
  <defs>
    <linearGradient id="grad" x1="0%" y1="0%" x2="100%" y2="100%">
      <stop offset="0%" stop-color="#ea580c"/>
      <stop offset="100%" stop-color="#f59e0b"/>
    </linearGradient>
    <linearGradient id="glow" x1="0%" y1="0%" x2="100%" y2="100%">
      <stop offset="0%" stop-color="#ea580c" stop-opacity="0.15"/>
      <stop offset="100%" stop-color="#f59e0b" stop-opacity="0.05"/>
    </linearGradient>
  </defs>
  <!-- Background -->
  <rect width="512" height="512" rx="96" fill="#1c1917"/>
  <!-- Diamond glow -->
  <path d="M256 64 L448 256 L256 448 L64 256 Z" fill="url(#glow)"/>
  <!-- Diamond outline -->
  <path d="M256 80 L432 256 L256 432 L80 256 Z" fill="none" stroke="url(#grad)" stroke-width="8" opacity="0.4"/>
  <!-- Inner diamond -->
  <path d="M256 140 L372 256 L256 372 L140 256 Z" fill="none" stroke="url(#grad)" stroke-width="4" opacity="0.2"/>
  <!-- S letterform -->
  <path d="M304 186c0-22-18-38-48-38s-48 16-48 38c0 28 22 34 48 42 34 10 48 24 48 48 0 22-18 38-48 38s-48-16-48-38" fill="none" stroke="url(#grad)" stroke-width="28" stroke-linecap="round" stroke-linejoin="round"/>
</svg>
